<svg xmlns="http://www.w3.org/2000/svg" xmlns:xlink="http://www.w3.org/1999/xlink" width="1080" zoomAndPan="magnify" viewBox="0 0 810 809.999993" height="1080" preserveAspectRatio="xMidYMid meet" version="1.0"><rect x="-81" width="972" fill="#ffffff" y="-80.999999" height="971.999992" fill-opacity="1"/><rect x="-81" width="972" fill="#ffffff" y="-80.999999" height="971.999992" fill-opacity="1"/><rect x="-81" width="972" fill="#000000" y="-80.999999" height="971.999992" fill-opacity="1"/><path fill="#ffffff" d="M 81 81 L 729 81 L 729 729 L 81 729 Z M 81 81 " fill-opacity="1" fill-rule="nonzero"/><path stroke-linecap="butt" transform="matrix(15.804878, 0, 0, 15.804878, 80.999999, 81.000016)" fill-opacity="1" fill="#ffffff" fill-rule="nonzero" stroke-linejoin="miter" d="M 1.999976 2.499969 L 8.999892 2.499969 M 13.000091 2.499969 L 15.000067 2.499969 M 18.00003 2.499969 L 19.000018 2.499969 M 22.99997 2.499969 L 24.999946 2.499969 M 26.999922 2.499969 L 27.99991 2.499969 M 29.999886 2.499969 L 31.000121 2.499969 M 32.000109 2.499969 L 39.000025 2.499969 M 1.999976 3.499957 L 2.999964 3.499957 M 7.999904 3.499957 L 8.999892 3.499957 M 11.000115 3.499957 L 12.000103 3.499957 M 14.000079 3.499957 L 20.999994 3.499957 M 21.999982 3.499957 L 22.99997 3.499957 M 25.999934 3.499957 L 31.000121 3.499957 M 32.000109 3.499957 L 33.000097 3.499957 M 38.000037 3.499957 L 39.000025 3.499957 M 1.999976 4.499945 L 2.999964 4.499945 M 3.999952 4.499945 L 6.999916 4.499945 M 7.999904 4.499945 L 8.999892 4.499945 M 9.99988 4.499945 L 14.000079 4.499945 M 15.000067 4.499945 L 16.000054 4.499945 M 17.000042 4.499945 L 19.000018 4.499945 M 22.99997 4.499945 L 26.999922 4.499945 M 27.99991 4.499945 L 28.999898 4.499945 M 32.000109 4.499945 L 33.000097 4.499945 M 34.000085 4.499945 L 37.000049 4.499945 M 38.000037 4.499945 L 39.000025 4.499945 M 1.999976 5.499933 L 2.999964 5.499933 M 3.999952 5.499933 L 6.999916 5.499933 M 7.999904 5.499933 L 8.999892 5.499933 M 9.99988 5.499933 L 12.000103 5.499933 M 13.000091 5.499933 L 16.000054 5.499933 M 17.000042 5.499933 L 18.00003 5.499933 M 19.000018 5.499933 L 20.999994 5.499933 M 21.999982 5.499933 L 22.99997 5.499933 M 23.999958 5.499933 L 24.999946 5.499933 M 26.999922 5.499933 L 29.999886 5.499933 M 32.000109 5.499933 L 33.000097 5.499933 M 34.000085 5.499933 L 37.000049 5.499933 M 38.000037 5.499933 L 39.000025 5.499933 M 1.999976 6.499921 L 2.999964 6.499921 M 3.999952 6.499921 L 6.999916 6.499921 M 7.999904 6.499921 L 8.999892 6.499921 M 9.99988 6.499921 L 13.000091 6.499921 M 14.000079 6.499921 L 15.000067 6.499921 M 16.000054 6.499921 L 17.000042 6.499921 M 18.00003 6.499921 L 25.999934 6.499921 M 26.999922 6.499921 L 27.99991 6.499921 M 29.999886 6.499921 L 31.000121 6.499921 M 32.000109 6.499921 L 33.000097 6.499921 M 34.000085 6.499921 L 37.000049 6.499921 M 38.000037 6.499921 L 39.000025 6.499921 M 1.999976 7.499909 L 2.999964 7.499909 M 7.999904 7.499909 L 8.999892 7.499909 M 9.99988 7.499909 L 11.000115 7.499909 M 13.000091 7.499909 L 14.000079 7.499909 M 17.000042 7.499909 L 18.00003 7.499909 M 19.000018 7.499909 L 20.000006 7.499909 M 26.999922 7.499909 L 31.000121 7.499909 M 32.000109 7.499909 L 33.000097 7.499909 M 38.000037 7.499909 L 39.000025 7.499909 M 1.999976 8.499897 L 8.999892 8.499897 M 9.99988 8.499897 L 11.000115 8.499897 M 12.000103 8.499897 L 13.000091 8.499897 M 14.000079 8.499897 L 15.000067 8.499897 M 16.000054 8.499897 L 17.000042 8.499897 M 18.00003 8.499897 L 19.000018 8.499897 M 20.000006 8.499897 L 20.999994 8.499897 M 21.999982 8.499897 L 22.99997 8.499897 M 23.999958 8.499897 L 24.999946 8.499897 M 25.999934 8.499897 L 26.999922 8.499897 M 27.99991 8.499897 L 28.999898 8.499897 M 29.999886 8.499897 L 31.000121 8.499897 M 32.000109 8.499897 L 39.000025 8.499897 M 9.99988 9.499885 L 11.000115 9.499885 M 12.000103 9.499885 L 13.000091 9.499885 M 14.000079 9.499885 L 15.000067 9.499885 M 19.000018 9.499885 L 20.999994 9.499885 M 22.99997 9.499885 L 23.999958 9.499885 M 24.999946 9.499885 L 25.999934 9.499885 M 27.99991 9.499885 L 28.999898 9.499885 M 29.999886 9.499885 L 31.000121 9.499885 M 1.999976 10.50012 L 2.999964 10.50012 M 3.999952 10.50012 L 8.999892 10.50012 M 11.000115 10.50012 L 12.000103 10.50012 M 13.000091 10.50012 L 15.000067 10.50012 M 16.000054 10.50012 L 17.000042 10.50012 M 18.00003 10.50012 L 19.000018 10.50012 M 22.99997 10.50012 L 23.999958 10.50012 M 24.999946 10.50012 L 27.99991 10.50012 M 32.000109 10.50012 L 37.000049 10.50012 M 1.999976 11.500108 L 2.999964 11.500108 M 3.999952 11.500108 L 4.99994 11.500108 M 5.999928 11.500108 L 7.999904 11.500108 M 8.999892 11.500108 L 9.99988 11.500108 M 11.000115 11.500108 L 14.000079 11.500108 M 15.000067 11.500108 L 16.000054 11.500108 M 17.000042 11.500108 L 18.00003 11.500108 M 19.000018 11.500108 L 20.999994 11.500108 M 21.999982 11.500108 L 23.999958 11.500108 M 29.999886 11.500108 L 31.000121 11.500108 M 33.000097 11.500108 L 34.000085 11.500108 M 37.000049 11.500108 L 38.000037 11.500108 M 2.999964 12.500096 L 3.999952 12.500096 M 4.99994 12.500096 L 5.999928 12.500096 M 6.999916 12.500096 L 8.999892 12.500096 M 11.000115 12.500096 L 13.000091 12.500096 M 14.000079 12.500096 L 15.000067 12.500096 M 17.000042 12.500096 L 20.000006 12.500096 M 20.999994 12.500096 L 21.999982 12.500096 M 22.99997 12.500096 L 24.999946 12.500096 M 26.999922 12.500096 L 31.000121 12.500096 M 32.000109 12.500096 L 36.000061 12.500096 M 37.000049 12.500096 L 39.000025 12.500096 M 2.999964 13.500084 L 3.999952 13.500084 M 8.999892 13.500084 L 12.000103 13.500084 M 15.000067 13.500084 L 16.000054 13.500084 M 17.000042 13.500084 L 18.00003 13.500084 M 20.999994 13.500084 L 23.999958 13.500084 M 27.99991 13.500084 L 31.000121 13.500084 M 32.000109 13.500084 L 33.000097 13.500084 M 35.000073 13.500084 L 36.000061 13.500084 M 38.000037 13.500084 L 39.000025 13.500084 M 3.999952 14.500072 L 4.99994 14.500072 M 7.999904 14.500072 L 9.99988 14.500072 M 11.000115 14.500072 L 14.000079 14.500072 M 15.000067 14.500072 L 16.000054 14.500072 M 17.000042 14.500072 L 20.000006 14.500072 M 20.999994 14.500072 L 22.99997 14.500072 M 23.999958 14.500072 L 29.999886 14.500072 M 31.000121 14.500072 L 35.000073 14.500072 M 36.000061 14.500072 L 39.000025 14.500072 M 1.999976 15.500059 L 2.999964 15.500059 M 5.999928 15.500059 L 7.999904 15.500059 M 9.99988 15.500059 L 12.000103 15.500059 M 14.000079 15.500059 L 15.000067 15.500059 M 18.00003 15.500059 L 19.000018 15.500059 M 20.000006 15.500059 L 22.99997 15.500059 M 24.999946 15.500059 L 26.999922 15.500059 M 29.999886 15.500059 L 31.000121 15.500059 M 33.000097 15.500059 L 34.000085 15.500059 M 2.999964 16.500047 L 3.999952 16.500047 M 4.99994 16.500047 L 6.999916 16.500047 M 7.999904 16.500047 L 9.99988 16.500047 M 12.000103 16.500047 L 13.000091 16.500047 M 16.000054 16.500047 L 18.00003 16.500047 M 20.000006 16.500047 L 20.999994 16.500047 M 23.999958 16.500047 L 24.999946 16.500047 M 26.999922 16.500047 L 36.000061 16.500047 M 37.000049 16.500047 L 39.000025 16.500047 M 3.999952 17.500035 L 6.999916 17.500035 M 12.000103 17.500035 L 13.000091 17.500035 M 17.000042 17.500035 L 19.000018 17.500035 M 29.999886 17.500035 L 35.000073 17.500035 M 37.000049 17.500035 L 39.000025 17.500035 M 4.99994 18.500023 L 6.999916 18.500023 M 7.999904 18.500023 L 9.99988 18.500023 M 12.000103 18.500023 L 17.000042 18.500023 M 20.000006 18.500023 L 20.999994 18.500023 M 21.999982 18.500023 L 29.999886 18.500023 M 31.000121 18.500023 L 35.000073 18.500023 M 36.000061 18.500023 L 37.000049 18.500023 M 2.999964 19.500011 L 3.999952 19.500011 M 5.999928 19.500011 L 7.999904 19.500011 M 8.999892 19.500011 L 9.99988 19.500011 M 11.000115 19.500011 L 14.000079 19.500011 M 17.000042 19.500011 L 19.000018 19.500011 M 24.999946 19.500011 L 27.99991 19.500011 M 29.999886 19.500011 L 31.000121 19.500011 M 33.000097 19.500011 L 34.000085 19.500011 M 36.000061 19.500011 L 38.000037 19.500011 M 1.999976 20.499999 L 2.999964 20.499999 M 5.999928 20.499999 L 6.999916 20.499999 M 7.999904 20.499999 L 8.999892 20.499999 M 14.000079 20.499999 L 15.000067 20.499999 M 16.000054 20.499999 L 17.000042 20.499999 M 21.999982 20.499999 L 22.99997 20.499999 M 23.999958 20.499999 L 24.999946 20.499999 M 25.999934 20.499999 L 26.999922 20.499999 M 27.99991 20.499999 L 29.999886 20.499999 M 31.000121 20.499999 L 32.000109 20.499999 M 34.000085 20.499999 L 35.000073 20.499999 M 37.000049 20.499999 L 39.000025 20.499999 M 11.000115 21.499987 L 14.000079 21.499987 M 16.000054 21.499987 L 17.000042 21.499987 M 18.00003 21.499987 L 19.000018 21.499987 M 20.000006 21.499987 L 20.999994 21.499987 M 22.99997 21.499987 L 24.999946 21.499987 M 29.999886 21.499987 L 31.000121 21.499987 M 32.000109 21.499987 L 35.000073 21.499987 M 38.000037 21.499987 L 39.000025 21.499987 M 1.999976 22.499975 L 3.999952 22.499975 M 4.99994 22.499975 L 8.999892 22.499975 M 9.99988 22.499975 L 13.000091 22.499975 M 15.000067 22.499975 L 17.000042 22.499975 M 19.000018 22.499975 L 20.000006 22.499975 M 21.999982 22.499975 L 22.99997 22.499975 M 23.999958 22.499975 L 24.999946 22.499975 M 25.999934 22.499975 L 28.999898 22.499975 M 31.000121 22.499975 L 33.000097 22.499975 M 34.000085 22.499975 L 37.000049 22.499975 M 4.99994 23.499963 L 7.999904 23.499963 M 8.999892 23.499963 L 14.000079 23.499963 M 18.00003 23.499963 L 25.999934 23.499963 M 26.999922 23.499963 L 27.99991 23.499963 M 29.999886 23.499963 L 31.000121 23.499963 M 35.000073 23.499963 L 36.000061 23.499963 M 1.999976 24.499951 L 2.999964 24.499951 M 4.99994 24.499951 L 6.999916 24.499951 M 7.999904 24.499951 L 12.000103 24.499951 M 15.000067 24.499951 L 16.000054 24.499951 M 17.000042 24.499951 L 20.000006 24.499951 M 21.999982 24.499951 L 23.999958 24.499951 M 28.999898 24.499951 L 29.999886 24.499951 M 31.000121 24.499951 L 32.000109 24.499951 M 33.000097 24.499951 L 36.000061 24.499951 M 37.000049 24.499951 L 39.000025 24.499951 M 5.999928 25.499939 L 7.999904 25.499939 M 9.99988 25.499939 L 11.000115 25.499939 M 12.000103 25.499939 L 14.000079 25.499939 M 15.000067 25.499939 L 16.000054 25.499939 M 17.000042 25.499939 L 18.00003 25.499939 M 19.000018 25.499939 L 20.999994 25.499939 M 22.99997 25.499939 L 25.999934 25.499939 M 29.999886 25.499939 L 31.000121 25.499939 M 32.000109 25.499939 L 35.000073 25.499939 M 37.000049 25.499939 L 38.000037 25.499939 M 2.999964 26.499927 L 8.999892 26.499927 M 9.99988 26.499927 L 12.000103 26.499927 M 13.000091 26.499927 L 15.000067 26.499927 M 16.000054 26.499927 L 17.000042 26.499927 M 18.00003 26.499927 L 19.000018 26.499927 M 22.99997 26.499927 L 23.999958 26.499927 M 24.999946 26.499927 L 25.999934 26.499927 M 26.999922 26.499927 L 28.999898 26.499927 M 31.000121 26.499927 L 33.000097 26.499927 M 34.000085 26.499927 L 35.000073 26.499927 M 36.000061 26.499927 L 38.000037 26.499927 M 1.999976 27.499915 L 5.999928 27.499915 M 8.999892 27.499915 L 9.99988 27.499915 M 13.000091 27.499915 L 14.000079 27.499915 M 15.000067 27.499915 L 18.00003 27.499915 M 20.000006 27.499915 L 20.999994 27.499915 M 21.999982 27.499915 L 25.999934 27.499915 M 31.000121 27.499915 L 32.000109 27.499915 M 35.000073 27.499915 L 36.000061 27.499915 M 1.999976 28.499903 L 2.999964 28.499903 M 5.999928 28.499903 L 6.999916 28.499903 M 7.999904 28.499903 L 8.999892 28.499903 M 11.000115 28.499903 L 14.000079 28.499903 M 15.000067 28.499903 L 16.000054 28.499903 M 17.000042 28.499903 L 19.000018 28.499903 M 20.999994 28.499903 L 21.999982 28.499903 M 25.999934 28.499903 L 26.999922 28.499903 M 27.99991 28.499903 L 31.000121 28.499903 M 32.000109 28.499903 L 34.000085 28.499903 M 36.000061 28.499903 L 39.000025 28.499903 M 1.999976 29.499891 L 2.999964 29.499891 M 5.999928 29.499891 L 7.999904 29.499891 M 8.999892 29.499891 L 13.000091 29.499891 M 14.000079 29.499891 L 15.000067 29.499891 M 17.000042 29.499891 L 18.00003 29.499891 M 20.999994 29.499891 L 23.999958 29.499891 M 25.999934 29.499891 L 26.999922 29.499891 M 27.99991 29.499891 L 29.999886 29.499891 M 31.000121 29.499891 L 35.000073 29.499891 M 38.000037 29.499891 L 39.000025 29.499891 M 1.999976 30.499879 L 2.999964 30.499879 M 3.999952 30.499879 L 4.99994 30.499879 M 5.999928 30.499879 L 6.999916 30.499879 M 7.999904 30.499879 L 9.99988 30.499879 M 11.000115 30.499879 L 13.000091 30.499879 M 14.000079 30.499879 L 15.000067 30.499879 M 16.000054 30.499879 L 18.00003 30.499879 M 19.000018 30.499879 L 20.000006 30.499879 M 20.999994 30.499879 L 21.999982 30.499879 M 23.999958 30.499879 L 24.999946 30.499879 M 25.999934 30.499879 L 27.99991 30.499879 M 28.999898 30.499879 L 39.000025 30.499879 M 9.99988 31.500114 L 11.000115 31.500114 M 12.000103 31.500114 L 13.000091 31.500114 M 18.00003 31.500114 L 19.000018 31.500114 M 20.999994 31.500114 L 22.99997 31.500114 M 24.999946 31.500114 L 25.999934 31.500114 M 26.999922 31.500114 L 27.99991 31.500114 M 28.999898 31.500114 L 31.000121 31.500114 M 34.000085 31.500114 L 36.000061 31.500114 M 37.000049 31.500114 L 38.000037 31.500114 M 1.999976 32.500102 L 8.999892 32.500102 M 12.000103 32.500102 L 15.000067 32.500102 M 16.000054 32.500102 L 19.000018 32.500102 M 20.000006 32.500102 L 20.999994 32.500102 M 21.999982 32.500102 L 22.99997 32.500102 M 23.999958 32.500102 L 24.999946 32.500102 M 27.99991 32.500102 L 28.999898 32.500102 M 29.999886 32.500102 L 31.000121 32.500102 M 32.000109 32.500102 L 33.000097 32.500102 M 34.000085 32.500102 L 35.000073 32.500102 M 36.000061 32.500102 L 37.000049 32.500102 M 38.000037 32.500102 L 39.000025 32.500102 M 1.999976 33.50009 L 2.999964 33.50009 M 7.999904 33.50009 L 8.999892 33.50009 M 9.99988 33.50009 L 11.000115 33.50009 M 12.000103 33.50009 L 13.000091 33.50009 M 14.000079 33.50009 L 16.000054 33.50009 M 17.000042 33.50009 L 18.00003 33.50009 M 20.999994 33.50009 L 22.99997 33.50009 M 24.999946 33.50009 L 26.999922 33.50009 M 28.999898 33.50009 L 31.000121 33.50009 M 34.000085 33.50009 L 36.000061 33.50009 M 37.000049 33.50009 L 38.000037 33.50009 M 1.999976 34.500078 L 2.999964 34.500078 M 3.999952 34.500078 L 6.999916 34.500078 M 7.999904 34.500078 L 8.999892 34.500078 M 9.99988 34.500078 L 11.000115 34.500078 M 12.000103 34.500078 L 14.000079 34.500078 M 16.000054 34.500078 L 18.00003 34.500078 M 20.000006 34.500078 L 24.999946 34.500078 M 26.999922 34.500078 L 27.99991 34.500078 M 28.999898 34.500078 L 35.000073 34.500078 M 36.000061 34.500078 L 37.000049 34.500078 M 38.000037 34.500078 L 39.000025 34.500078 M 1.999976 35.500066 L 2.999964 35.500066 M 3.999952 35.500066 L 6.999916 35.500066 M 7.999904 35.500066 L 8.999892 35.500066 M 9.99988 35.500066 L 14.000079 35.500066 M 15.000067 35.500066 L 16.000054 35.500066 M 17.000042 35.500066 L 19.000018 35.500066 M 22.99997 35.500066 L 23.999958 35.500066 M 24.999946 35.500066 L 25.999934 35.500066 M 26.999922 35.500066 L 28.999898 35.500066 M 31.000121 35.500066 L 33.000097 35.500066 M 34.000085 35.500066 L 35.000073 35.500066 M 36.000061 35.500066 L 37.000049 35.500066 M 38.000037 35.500066 L 39.000025 35.500066 M 1.999976 36.500054 L 2.999964 36.500054 M 3.999952 36.500054 L 6.999916 36.500054 M 7.999904 36.500054 L 8.999892 36.500054 M 9.99988 36.500054 L 11.000115 36.500054 M 12.000103 36.500054 L 16.000054 36.500054 M 21.999982 36.500054 L 24.999946 36.500054 M 26.999922 36.500054 L 32.000109 36.500054 M 36.000061 36.500054 L 39.000025 36.500054 M 1.999976 37.500042 L 2.999964 37.500042 M 7.999904 37.500042 L 8.999892 37.500042 M 18.00003 37.500042 L 19.000018 37.500042 M 20.000006 37.500042 L 20.999994 37.500042 M 22.99997 37.500042 L 24.999946 37.500042 M 28.999898 37.500042 L 33.000097 37.500042 M 34.000085 37.500042 L 35.000073 37.500042 M 38.000037 37.500042 L 39.000025 37.500042 M 1.999976 38.50003 L 8.999892 38.50003 M 9.99988 38.50003 L 11.000115 38.50003 M 13.000091 38.50003 L 15.000067 38.50003 M 19.000018 38.50003 L 20.000006 38.50003 M 24.999946 38.50003 L 28.999898 38.50003 M 34.000085 38.50003 L 39.000025 38.50003 " stroke="#000000" stroke-width="1" stroke-opacity="1" stroke-miterlimit="4"/></svg>