<svg width="900" height="168" viewBox="0 0 900 168" fill="none" xmlns="http://www.w3.org/2000/svg">
<g clip-path="url(#clip0_1_13)">
<path d="M667.201 124.482C662.931 124.511 658.728 123.386 655.039 121.224C651.498 119.114 648.545 116.141 646.462 112.583C644.33 108.882 643.233 104.673 643.295 100.401C643.289 97.2612 644.005 94.1618 645.39 91.3436C646.775 88.5222 648.698 85.9956 651.045 83.904C648.711 81.7946 646.811 79.2545 645.445 76.4234C644.091 73.6315 643.399 70.567 643.411 67.4638C643.374 63.3149 644.459 59.2328 646.554 55.652C648.649 52.1978 651.584 49.3268 655.082 47.3032C658.66 45.1808 662.753 44.0836 666.913 44.1319L699.978 44.2516L699.923 58.7119L668.702 58.5989C667.121 58.5859 665.565 59.0194 664.223 59.8494C662.894 60.6279 661.785 61.7275 660.995 63.0472C660.21 64.406 659.806 65.9536 659.83 67.5233C659.812 69.0898 660.204 70.6331 660.964 72.0037C661.785 73.2952 662.881 74.3937 664.168 75.2244C665.528 75.9939 667.072 76.3958 668.634 76.3903L695.953 76.4896L695.904 90.9496L669.272 90.8534C667.562 90.8326 665.89 91.3056 664.444 92.2154C663.01 93.0308 661.815 94.2151 660.988 95.6463C660.155 97.1154 659.72 98.7739 659.714 100.463C659.708 102.152 660.131 103.813 660.958 105.288C661.773 106.724 662.955 107.915 664.389 108.74C665.847 109.59 667.513 110.032 669.198 110.019L699.739 110.13L699.69 124.595L667.201 124.482Z" fill="#1E332C"/>
<path d="M574.279 124.869L574.332 110.404L608.765 110.529C610.383 110.554 611.974 110.122 613.36 109.284C614.726 108.466 615.872 107.328 616.699 105.969C617.538 104.543 617.98 102.92 617.98 101.267C618.01 99.612 617.581 97.9805 616.736 96.5567C615.939 95.1433 614.8 93.9547 613.415 93.1013C612.039 92.2546 610.45 91.8116 608.833 91.8227L595.404 91.7736C591.15 91.8171 586.946 90.8583 583.131 88.975C579.524 87.1799 576.478 84.4291 574.325 81.0233C572.192 77.4968 571.136 73.286 571.157 68.3908C571.174 63.5826 572.222 59.4166 574.299 55.8932C576.289 52.396 579.197 49.5091 582.709 47.544C586.293 45.5525 590.339 44.538 594.439 44.6023L629.332 44.7286L629.283 59.189L595.983 59.0685C594.477 59.0583 593.001 59.4921 591.741 60.3154C590.455 61.0572 589.384 62.1202 588.633 63.4007C587.949 64.7516 587.59 66.244 587.585 67.7579C587.579 69.2724 587.927 70.7667 588.601 72.1231C589.344 73.4091 590.407 74.4813 591.687 75.2354C592.972 75.9988 594.439 76.3995 595.934 76.3958L609.803 76.4461C614.781 76.4638 619.101 77.4367 622.764 79.3642C626.306 81.1697 629.246 83.9665 631.231 87.4139C633.284 90.8651 634.301 94.8866 634.283 99.4785C634.264 104.908 633.174 109.534 631.017 113.355C629.087 117.021 626.122 120.042 622.495 122.046C618.911 124.038 614.861 125.053 610.764 124.988L574.279 124.869Z" fill="#1E332C"/>
<path d="M501.864 124.607L502.155 44.2642L535.785 44.3859C540.807 44.3388 545.752 45.6243 550.116 48.1114C554.406 50.4378 557.97 53.9064 560.411 58.1331C562.997 62.4308 564.281 67.4087 564.26 73.0672C564.24 78.6535 562.921 83.6222 560.303 87.9733C557.816 92.2 554.233 95.6769 549.935 98.0375C545.531 100.421 540.586 101.628 535.579 101.542L515.975 101.471L515.891 124.658L501.864 124.607ZM516.028 87.0108L533.679 87.0745C536.143 87.1137 538.582 86.5734 540.798 85.4957C542.902 84.3972 544.659 82.7332 545.869 80.6906C547.227 78.3625 547.913 75.7029 547.848 73.0078C547.859 70.0241 547.218 67.4975 545.924 65.4279C544.771 63.3437 543.016 61.6564 540.888 60.5868C538.702 59.4204 536.259 58.8197 533.781 58.8392L516.13 58.7753L516.028 87.0108Z" fill="#1E332C"/>
<path d="M468.701 44.4846L468.577 44.0741L447.49 43.9977L422.578 124.319L437.904 124.375L442.467 109.065C452.351 108.716 462.129 106.913 471.488 103.716L477.531 124.509L492.856 124.565L468.701 44.4846ZM467.696 90.6347C460.892 93.0167 453.818 94.5435 446.637 95.1788L457.974 57.7343L467.696 90.6347Z" fill="#1E332C"/>
<path d="M416.236 104.125L416.457 42.8538L402.619 42.8037L402.397 104.084C402.391 105.185 402.16 106.273 401.719 107.282C401.276 108.29 400.633 109.197 399.829 109.948C398.138 111.512 395.917 112.377 393.613 112.369C391.311 112.36 389.098 111.479 387.42 109.904C386.622 109.144 385.986 108.231 385.55 107.219C385.115 106.209 384.891 105.12 384.889 104.021L385.039 62.7224C385.036 59.8662 384.451 57.0404 383.32 54.4176C382.189 51.7959 380.536 49.4314 378.464 47.4674C374.133 43.4144 368.429 41.1503 362.498 41.1303C356.567 41.1045 350.847 43.3277 346.491 47.3516C344.4 49.2984 342.73 51.6513 341.58 54.2666C340.414 56.8777 339.794 59.6993 339.756 62.5589L339.534 123.862L353.381 123.912L353.603 62.6134C353.611 61.5137 353.842 60.4272 354.282 59.4197C354.724 58.4121 355.367 57.5048 356.171 56.7535C357.859 55.1865 360.08 54.3194 362.383 54.3282C364.687 54.3354 366.903 55.2185 368.581 56.7984C369.377 57.5553 370.013 58.4652 370.451 59.4736C370.885 60.4809 371.109 61.5663 371.111 62.663L370.993 103.966C370.992 106.822 371.576 109.649 372.707 112.271C373.837 114.895 375.489 117.261 377.564 119.226C381.89 123.275 387.589 125.537 393.516 125.558C399.444 125.58 405.16 123.359 409.518 119.341C411.606 117.391 413.276 115.038 414.425 112.422C415.575 109.807 416.18 106.986 416.204 104.13L416.236 104.125Z" fill="#1E332C"/>
<path d="M282.241 123.812L282.294 109.347L296.763 109.399L296.949 57.9813L282.48 57.9289L282.532 43.4686L325.291 43.6233L325.239 58.0837L310.774 58.0314L310.588 109.45L325.053 109.502L325 123.967L282.241 123.812Z" fill="#1E332C"/>
<path d="M251.282 123.204L214.73 123.071L214.782 108.624L251.343 108.757C252.433 108.755 253.509 108.521 254.501 108.07C255.515 107.609 256.423 106.943 257.168 106.114C258.747 104.33 259.62 102.029 259.621 99.6457C259.636 97.2625 258.781 94.9558 257.214 93.1595C256.474 92.3281 255.571 91.6578 254.562 91.1885C253.573 90.7339 252.499 90.4901 251.409 90.4742L234.705 90.4135C231.858 90.3878 229.05 89.7549 226.467 88.5584C223.846 87.3435 221.506 85.5992 219.593 83.4353C215.569 78.806 213.371 72.8681 213.41 66.7348C213.415 60.6009 215.656 54.6794 219.714 50.0792C221.64 47.9275 223.992 46.1987 226.62 45.0016C229.214 43.8292 232.028 43.2247 234.875 43.2284L271.44 43.3607L271.388 57.8121L234.827 57.6798C233.737 57.6832 232.661 57.9188 231.669 58.3713C230.657 58.8298 229.751 59.4927 229.007 60.3182C227.424 62.103 226.551 64.4054 226.55 66.7911C226.533 69.175 227.391 71.4829 228.96 73.2774C229.697 74.1082 230.597 74.779 231.604 75.2477C232.591 75.7084 233.667 75.9504 234.757 75.9578L251.461 76.0546C254.308 76.073 257.118 76.6979 259.704 77.887C262.325 79.102 264.665 80.8462 266.578 83.0101C270.601 87.64 272.797 93.5779 272.756 99.7113C272.751 105.844 270.512 111.765 266.457 116.366C264.528 118.516 262.175 120.243 259.546 121.44C256.953 122.617 254.139 123.23 251.291 123.235L251.282 123.204Z" fill="#1E332C"/>
<path d="M870.519 42.3719C861.304 42.3386 853.958 45.3752 848.69 51.3993C843.427 57.4234 840.878 65.333 840.841 75.6288L840.78 92.6785C840.743 103.502 843.323 111.939 848.457 117.753C853.585 123.566 861.12 126.678 870.194 126.711C879.396 126.744 886.736 123.785 892.005 117.918C897.176 112.153 899.816 103.736 899.859 92.8985L899.92 75.8481C899.957 65.5333 897.445 57.5899 892.256 51.5667C887.079 45.499 879.764 42.4054 870.519 42.3719ZM885.412 76.7781L885.357 92.1853C885.333 99.0711 883.979 104.387 881.338 107.966C878.924 111.25 875.304 112.849 870.261 112.831C865.225 112.813 861.549 111.193 859.123 107.889C856.568 104.276 855.276 98.9626 855.3 92.0763L855.361 76.3438C855.38 70.1228 856.63 65.3998 859.289 61.4916C861.782 57.9239 865.434 56.1991 870.439 56.2172C875.445 56.2353 879.041 57.9922 881.442 61.5719C884.157 65.4954 885.413 70.2214 885.388 76.4467V76.7604L885.412 76.7781Z" fill="#FE8237"/>
<path d="M788.612 124.527L788.661 110.062L803.132 110.114L803.316 58.6965L788.851 58.6441L788.9 44.1838L831.658 44.3385L831.609 58.7989L817.144 58.7465L816.954 110.165L831.419 110.217L831.37 124.682L788.612 124.527Z" fill="#FE8237"/>
<path fill-rule="evenodd" clip-rule="evenodd" d="M731.003 44.1458H717.022V124.466H723.143V124.498H756.208C760.368 124.531 764.461 123.419 768.027 121.284C771.519 119.247 774.441 116.366 776.524 112.904C778.607 109.315 779.679 105.23 779.624 101.081C779.63 97.9781 778.92 94.9154 777.56 92.1284C776.181 89.3022 774.27 86.7694 771.935 84.668C774.27 82.5684 776.181 80.035 777.56 77.2082C778.932 74.3851 779.637 71.2832 779.624 68.1433C779.667 63.8712 778.558 59.6662 776.408 55.9729C774.312 52.4223 771.347 49.4603 767.8 47.3633C764.106 45.2148 759.903 44.1044 755.626 44.1495L731.003 44.1528V44.1458ZM731.003 58.6187V77.7853H753.684C755.387 77.8 757.06 77.3209 758.5 76.4056C759.933 75.5847 761.122 74.3961 761.943 72.9619C762.77 71.4902 763.205 69.8299 763.205 68.1408C763.205 66.4523 762.77 64.792 761.943 63.3204C761.122 61.8874 759.933 60.7003 758.5 59.881C757.035 59.0364 755.369 58.6004 753.684 58.6187H731.003ZM731.003 92.2454V110.037H754.364C755.951 110.044 757.501 109.605 758.843 108.771C760.166 107.987 761.269 106.884 762.059 105.561C762.837 104.199 763.236 102.651 763.205 101.081C763.217 99.514 762.819 97.9719 762.059 96.6045C761.226 95.316 760.129 94.2212 758.843 93.3954C757.477 92.6308 755.933 92.2344 754.364 92.2454H731.003Z" fill="#FE8237"/>
<path d="M167.742 0H0V167.742H167.742V0Z" fill="#FE8237"/>
<path fill-rule="evenodd" clip-rule="evenodd" d="M137.254 93.4088V93.4223C122.054 93.4438 107.484 99.4914 96.7369 110.239C96.3429 110.633 95.9551 111.032 95.5734 111.436C102.511 122.923 106.506 136.38 106.506 150.755H87.5953C87.5874 143.655 86.2646 136.692 83.7613 130.191C81.2561 136.691 79.9309 143.654 79.9205 150.756H61.0092C61.0092 136.377 65.0089 122.918 71.9529 111.43C71.5687 111.022 71.1778 110.619 70.7802 110.222C60.0471 99.4877 45.5003 93.4419 30.3225 93.4039H17.0052V74.3385H30.3254V74.3477C45.4998 74.3103 60.0438 68.2677 70.7772 57.5377C71.1778 57.1371 71.5718 56.7312 71.9596 56.3201C65.0218 44.8347 61.0275 31.3816 61.0275 17.0143H79.9205C79.9328 24.1119 81.258 31.072 83.7631 37.5696C86.2659 31.0717 87.5898 24.1116 87.5996 17.0143H106.511C106.511 31.3795 102.514 44.8327 95.5728 56.3188C95.9582 56.7273 96.3497 57.1307 96.7485 57.5289C107.493 68.2677 122.054 74.3097 137.245 74.3336H150.737V93.4088H137.254ZM66.8727 83.8746C73.0777 87.2859 78.7595 91.5359 83.7644 96.4709C88.7704 91.5378 94.4535 87.2896 100.659 83.8801C94.4516 80.4682 88.7686 76.2163 83.7631 71.2801C78.7583 76.2139 73.0771 80.4633 66.8727 83.8746Z" fill="#1E332C"/>
</g>
<defs>
<clipPath id="clip0_1_13">
<rect width="900" height="167.869" fill="white"/>
</clipPath>
</defs>
</svg>
